<svg viewBox="0 0 1120 600" xmlns="http://www.w3.org/2000/svg">
  <style>
    text { font-family: 'JetBrains Mono', 'SF Mono', 'Cascadia Code', monospace; }
    .title { fill: #f8fafc; font-size: 16px; font-weight: 700; }
    .subtitle { fill: #94a3b8; font-size: 9px; font-weight: 400; }
    .label { fill: #f8fafc; font-size: 11px; font-weight: 600; }
    .small { fill: #94a3b8; font-size: 8.5px; font-weight: 400; }
    .tiny { fill: #cbd5e1; font-size: 7.5px; font-weight: 400; }
    .region-label { font-size: 9px; font-weight: 600; }
    .arrow { fill: none; stroke: #64748b; stroke-width: 1.5; marker-end: url(#arrow); }
    .arrow-cyan { fill: none; stroke: #22d3ee; stroke-width: 1.7; marker-end: url(#arrow-cyan); }
    .arrow-green { fill: none; stroke: #34d399; stroke-width: 1.7; marker-end: url(#arrow-green); }
    .arrow-violet { fill: none; stroke: #a78bfa; stroke-width: 1.7; marker-end: url(#arrow-violet); }
  </style>
  <defs>
    <pattern id="grid" width="40" height="40" patternUnits="userSpaceOnUse">
      <path d="M 40 0 L 0 0 0 40" fill="none" stroke="#1e293b" stroke-width="0.5"/>
    </pattern>
    <marker id="arrow" markerWidth="10" markerHeight="7" refX="9" refY="3.5" orient="auto">
      <polygon points="0 0, 10 3.5, 0 7" fill="#64748b"/>
    </marker>
    <marker id="arrow-cyan" markerWidth="10" markerHeight="7" refX="9" refY="3.5" orient="auto">
      <polygon points="0 0, 10 3.5, 0 7" fill="#22d3ee"/>
    </marker>
    <marker id="arrow-green" markerWidth="10" markerHeight="7" refX="9" refY="3.5" orient="auto">
      <polygon points="0 0, 10 3.5, 0 7" fill="#34d399"/>
    </marker>
    <marker id="arrow-violet" markerWidth="10" markerHeight="7" refX="9" refY="3.5" orient="auto">
      <polygon points="0 0, 10 3.5, 0 7" fill="#a78bfa"/>
    </marker>
  </defs>

  <rect width="1120" height="600" fill="#0f172a"/>
  <rect width="1120" height="600" fill="url(#grid)"/>

  <text x="30" y="34" class="title">Prolly Tree Architecture</text>
  <text x="30" y="52" class="subtitle">Tree handles carry root CIDs into a content-addressed node graph backed by durable Store implementations.</text>

  <rect x="30" y="82" width="230" height="365" rx="12" fill="none" stroke="#22d3ee" stroke-width="1" stroke-dasharray="8,4"/>
  <text x="44" y="101" fill="#22d3ee" class="region-label">Application layer</text>

  <rect x="290" y="82" width="230" height="365" rx="12" fill="none" stroke="#34d399" stroke-width="1" stroke-dasharray="8,4"/>
  <text x="304" y="101" fill="#34d399" class="region-label">Prolly manager</text>

  <rect x="550" y="82" width="230" height="365" rx="12" fill="none" stroke="#a78bfa" stroke-width="1" stroke-dasharray="8,4"/>
  <text x="564" y="101" fill="#a78bfa" class="region-label">Merkle node graph</text>

  <rect x="810" y="82" width="280" height="365" rx="12" fill="none" stroke="#fbbf24" stroke-width="1" stroke-dasharray="8,4"/>
  <text x="824" y="101" fill="#fbbf24" class="region-label">Store implementations</text>

  <path class="arrow-cyan" d="M 235 159 L 320 159"/>
  <text x="276" y="148" class="tiny" text-anchor="middle">API calls</text>

  <path class="arrow-green" d="M 405 190 L 405 250"/>
  <text x="420" y="223" class="tiny">returns/uses</text>

  <path class="arrow-violet" d="M 490 281 L 535 281 L 535 159 L 580 159"/>
  <text x="522" y="272" class="tiny" text-anchor="middle">root CID</text>

  <path class="arrow-violet" d="M 750 159 L 860 159"/>
  <text x="805" y="148" class="tiny" text-anchor="middle">get node</text>

  <path class="arrow" d="M 665 190 L 665 260"/>
  <path class="arrow" d="M 665 322 L 665 375"/>

  <rect x="65" y="128" width="170" height="62" rx="6" fill="#0f172a"/>
  <rect x="65" y="128" width="170" height="62" rx="6" fill="rgba(8,51,68,0.4)" stroke="#22d3ee" stroke-width="1.5"/>
  <text x="150" y="153" class="label" text-anchor="middle">Trail storage</text>
  <text x="150" y="169" class="small" text-anchor="middle">roots, text, indexes</text>

  <rect x="65" y="260" width="170" height="62" rx="6" fill="#0f172a"/>
  <rect x="65" y="260" width="170" height="62" rx="6" fill="rgba(8,51,68,0.4)" stroke="#22d3ee" stroke-width="1.5"/>
  <text x="150" y="285" class="label" text-anchor="middle">Workspace ops</text>
  <text x="150" y="301" class="small" text-anchor="middle">record, diff, merge</text>

  <rect x="320" y="128" width="170" height="62" rx="6" fill="#0f172a"/>
  <rect x="320" y="128" width="170" height="62" rx="6" fill="rgba(6,78,59,0.4)" stroke="#34d399" stroke-width="1.5"/>
  <text x="405" y="153" class="label" text-anchor="middle">Prolly&lt;S&gt;</text>
  <text x="405" y="169" class="small" text-anchor="middle">get, put, range, diff</text>

  <rect x="320" y="250" width="170" height="62" rx="6" fill="#0f172a"/>
  <rect x="320" y="250" width="170" height="62" rx="6" fill="rgba(6,78,59,0.4)" stroke="#34d399" stroke-width="1.5"/>
  <text x="405" y="275" class="label" text-anchor="middle">Tree handle</text>
  <text x="405" y="291" class="small" text-anchor="middle">root: Option&lt;Cid&gt;</text>

  <rect x="580" y="128" width="170" height="62" rx="6" fill="#0f172a"/>
  <rect x="580" y="128" width="170" height="62" rx="6" fill="rgba(76,29,149,0.4)" stroke="#a78bfa" stroke-width="1.5"/>
  <text x="665" y="153" class="label" text-anchor="middle">Root node CID</text>
  <text x="665" y="169" class="small" text-anchor="middle">SHA-256(node bytes)</text>

  <rect x="580" y="260" width="170" height="62" rx="6" fill="#0f172a"/>
  <rect x="580" y="260" width="170" height="62" rx="6" fill="rgba(76,29,149,0.4)" stroke="#a78bfa" stroke-width="1.5"/>
  <text x="665" y="285" class="label" text-anchor="middle">Internal nodes</text>
  <text x="665" y="301" class="small" text-anchor="middle">keys + child CIDs</text>

  <rect x="580" y="375" width="170" height="62" rx="6" fill="#0f172a"/>
  <rect x="580" y="375" width="170" height="62" rx="6" fill="rgba(76,29,149,0.4)" stroke="#a78bfa" stroke-width="1.5"/>
  <text x="665" y="400" class="label" text-anchor="middle">Leaf nodes</text>
  <text x="665" y="416" class="small" text-anchor="middle">keys + user values</text>

  <rect x="860" y="128" width="190" height="62" rx="6" fill="#0f172a"/>
  <rect x="860" y="128" width="190" height="62" rx="6" fill="rgba(120,53,15,0.3)" stroke="#fbbf24" stroke-width="1.5"/>
  <text x="955" y="153" class="label" text-anchor="middle">Store trait</text>
  <text x="955" y="169" class="small" text-anchor="middle">CID bytes -&gt; node bytes</text>

  <rect x="842" y="214" width="226" height="28" rx="6" fill="#0f172a"/>
  <rect x="842" y="214" width="226" height="28" rx="6" fill="rgba(30,41,59,0.5)" stroke="#94a3b8" stroke-width="1"/>
  <text x="955" y="232" class="tiny" text-anchor="middle">Durable backends implement Store</text>

  <rect x="828" y="260" width="120" height="54" rx="6" fill="#0f172a"/>
  <rect x="828" y="260" width="120" height="54" rx="6" fill="rgba(120,53,15,0.3)" stroke="#fbbf24" stroke-width="1.4"/>
  <text x="888" y="282" class="label" text-anchor="middle">SQLite</text>
  <text x="888" y="298" class="tiny" text-anchor="middle">durable local DB</text>

  <rect x="963" y="260" width="120" height="54" rx="6" fill="#0f172a"/>
  <rect x="963" y="260" width="120" height="54" rx="6" fill="rgba(120,53,15,0.3)" stroke="#fbbf24" stroke-width="1.4"/>
  <text x="1023" y="282" class="label" text-anchor="middle">Trail</text>
  <text x="1023" y="298" class="tiny" text-anchor="middle">uses SQLite</text>

  <rect x="828" y="340" width="120" height="54" rx="6" fill="#0f172a"/>
  <rect x="828" y="340" width="120" height="54" rx="6" fill="rgba(120,53,15,0.3)" stroke="#fbbf24" stroke-width="1.4"/>
  <text x="888" y="362" class="label" text-anchor="middle">RocksDB</text>
  <text x="888" y="378" class="tiny" text-anchor="middle">durable KV engine</text>

  <rect x="963" y="340" width="120" height="54" rx="6" fill="#0f172a"/>
  <rect x="963" y="340" width="120" height="54" rx="6" fill="rgba(120,53,15,0.3)" stroke="#fbbf24" stroke-width="1.4"/>
  <text x="1023" y="362" class="label" text-anchor="middle">PGlite</text>
  <text x="1023" y="378" class="tiny" text-anchor="middle">durable Postgres</text>

  <rect x="30" y="485" width="1060" height="60" rx="8" fill="#0f172a"/>
  <rect x="30" y="485" width="1060" height="60" rx="8" fill="rgba(30,41,59,0.5)" stroke="#94a3b8" stroke-width="1"/>
  <text x="560" y="509" class="small" text-anchor="middle">The Store trait is the abstraction boundary; durable backends implement the same CID bytes -&gt; serialized node bytes contract.</text>
  <text x="560" y="526" class="tiny" text-anchor="middle">Identity rule: unchanged serialized nodes keep the same CID, so versions share internal and leaf subtrees by content.</text>
</svg>
